<svg width="203" height="55" viewBox="0 0 203 55" fill="none" xmlns="http://www.w3.org/2000/svg">
<rect width="55" height="55" rx="8" fill="white"/>
<path d="M38.8001 23.2936C36.3867 23.2936 35.4001 21.5869 36.6001 19.4936C37.2934 18.2802 36.8801 16.7336 35.6667 16.0402L33.3601 14.7202C32.3067 14.0936 30.9467 14.4669 30.3201 15.5202L30.1734 15.7736C28.9734 17.8669 27.0001 17.8669 25.7867 15.7736L25.6401 15.5202C25.0401 14.4669 23.6801 14.0936 22.6267 14.7202L20.3201 16.0402C19.1067 16.7336 18.6934 18.2936 19.3867 19.5069C20.6001 21.5869 19.6134 23.2936 17.2001 23.2936C15.8134 23.2936 14.6667 24.4269 14.6667 25.8269V28.1736C14.6667 29.5602 15.8001 30.7069 17.2001 30.7069C19.6134 30.7069 20.6001 32.4136 19.3867 34.5069C18.6934 35.7202 19.1067 37.2669 20.3201 37.9602L22.6267 39.2802C23.6801 39.9069 25.0401 39.5336 25.6667 38.4802L25.8134 38.2269C27.0134 36.1336 28.9867 36.1336 30.2001 38.2269L30.3467 38.4802C30.9734 39.5336 32.3334 39.9069 33.3867 39.2802L35.6934 37.9602C36.9067 37.2669 37.3201 35.7069 36.6267 34.5069C35.4134 32.4136 36.4001 30.7069 38.8134 30.7069C40.2001 30.7069 41.3467 29.5736 41.3467 28.1736V25.8269C41.3334 24.4402 40.2001 23.2936 38.8001 23.2936ZM28.0001 31.3336C25.6134 31.3336 23.6667 29.3869 23.6667 27.0002C23.6667 24.6136 25.6134 22.6669 28.0001 22.6669C30.3867 22.6669 32.3334 24.6136 32.3334 27.0002C32.3334 29.3869 30.3867 31.3336 28.0001 31.3336Z" fill="#0F191A"/>
<rect x="148" width="55" height="55" rx="8" fill="white"/>
<path d="M185.787 30.3201L184.453 28.1067C184.173 27.6134 183.92 26.6801 183.92 26.1334V22.7601C183.92 19.6267 182.08 16.9201 179.427 15.6534C178.733 14.4267 177.453 13.6667 175.987 13.6667C174.533 13.6667 173.227 14.4534 172.533 15.6934C169.933 16.9867 168.133 19.6667 168.133 22.7601V26.1334C168.133 26.6801 167.88 27.6134 167.6 28.0934L166.253 30.3201C165.72 31.2134 165.6 32.2001 165.933 33.1067C166.253 34.0001 167.013 34.6934 168 35.0267C170.587 35.9067 173.307 36.3334 176.027 36.3334C178.747 36.3334 181.467 35.9067 184.053 35.0401C184.987 34.7334 185.707 34.0267 186.053 33.1067C186.4 32.1867 186.307 31.1734 185.787 30.3201Z" fill="#0F191A"/>
<path d="M179.773 37.6801C179.213 39.2267 177.733 40.3334 176 40.3334C174.947 40.3334 173.907 39.9067 173.173 39.1467C172.747 38.7467 172.427 38.2134 172.24 37.6667C172.413 37.6934 172.587 37.7067 172.773 37.7334C173.08 37.7734 173.4 37.8134 173.72 37.8401C174.48 37.9067 175.253 37.9467 176.027 37.9467C176.787 37.9467 177.547 37.9067 178.293 37.8401C178.573 37.8134 178.853 37.8001 179.12 37.7601C179.333 37.7334 179.547 37.7067 179.773 37.6801Z" fill="#0F191A"/>
<rect x="74" width="55" height="55" rx="8" fill="white"/>
<path d="M106.347 41.3334C106.267 41.3334 106.173 41.32 106.093 41.2934C103.413 40.5334 100.6 40.5334 97.92 41.2934C97.4267 41.4267 96.9067 41.1467 96.7733 40.6534C96.6267 40.16 96.92 39.64 97.4133 39.5067C100.427 38.6534 103.6 38.6534 106.613 39.5067C107.107 39.6534 107.4 40.16 107.253 40.6534C107.12 41.0667 106.747 41.3334 106.347 41.3334Z" fill="#0F191A"/>
<path d="M111.613 20.48C110.227 17.68 107.547 15.6133 104.44 14.9333C101.187 14.2133 97.8533 14.9867 95.3067 17.04C92.7467 19.08 91.2933 22.1333 91.2933 25.4C91.2933 28.8533 93.36 32.4667 96.48 34.56V35.6667C96.4667 36.04 96.4533 36.6133 96.9067 37.08C97.3733 37.56 98.0667 37.6133 98.6133 37.6133H105.453C106.173 37.6133 106.72 37.4134 107.093 37.04C107.6 36.52 107.587 35.8533 107.573 35.4933V34.56C111.707 31.7733 114.307 25.8933 111.613 20.48ZM104.293 27.4933L102.867 29.9733C102.68 30.2933 102.347 30.48 102 30.48C101.827 30.48 101.653 30.44 101.507 30.3467C101.027 30.0667 100.867 29.4533 101.133 28.9867L102.267 27.0133H101.147C100.48 27.0133 99.9333 26.72 99.64 26.2267C99.3467 25.72 99.3733 25.1067 99.7067 24.52L101.133 22.04C101.413 21.56 102.027 21.4 102.493 21.6667C102.973 21.9467 103.133 22.56 102.867 23.0267L101.733 25H102.853C103.52 25 104.067 25.2933 104.36 25.7867C104.653 26.2933 104.627 26.92 104.293 27.4933Z" fill="#0F191A"/>
</svg>
