<svg width="20" height="20" viewBox="0 0 20 20" fill="none" xmlns="http://www.w3.org/2000/svg">
<path d="M17.475 0.833374H15.025C14.3 0.833374 13.7666 1.13337 13.525 1.66671C13.3916 1.90837 13.3333 2.19171 13.3333 2.52504V4.97504C13.3333 6.03337 13.9666 6.66671 15.025 6.66671H17.475C17.8083 6.66671 18.0916 6.60837 18.3333 6.47504C18.8666 6.23337 19.1666 5.70004 19.1666 4.97504V2.52504C19.1666 1.46671 18.5333 0.833374 17.475 0.833374ZM18.2583 4.10837C18.175 4.19171 18.05 4.25004 17.9166 4.25837H16.7416V4.68337L16.75 5.41671C16.7416 5.55837 16.6916 5.67504 16.5916 5.77504C16.5083 5.85837 16.3833 5.91671 16.25 5.91671C15.975 5.91671 15.75 5.69171 15.75 5.41671V4.25004L14.5833 4.25837C14.3083 4.25837 14.0833 4.02504 14.0833 3.75004C14.0833 3.47504 14.3083 3.25004 14.5833 3.25004L15.3166 3.25837H15.75V2.09171C15.75 1.81671 15.975 1.58337 16.25 1.58337C16.525 1.58337 16.75 1.81671 16.75 2.09171L16.7416 2.68337V3.25004H17.9166C18.1916 3.25004 18.4166 3.47504 18.4166 3.75004C18.4083 3.89171 18.35 4.00837 18.2583 4.10837Z" fill="#0F191A"/>
<path d="M7.5 8.65002C8.59536 8.65002 9.48333 7.76205 9.48333 6.66668C9.48333 5.57132 8.59536 4.68335 7.5 4.68335C6.40463 4.68335 5.51666 5.57132 5.51666 6.66668C5.51666 7.76205 6.40463 8.65002 7.5 8.65002Z" fill="#0F191A"/>
<path d="M17.475 6.66663H17.0834V10.5083L16.975 10.4166C16.325 9.85829 15.275 9.85829 14.625 10.4166L11.1584 13.3916C10.5084 13.95 9.45835 13.95 8.80835 13.3916L8.52502 13.1583C7.93335 12.6416 6.99169 12.5916 6.32502 13.0416L3.20835 15.1333C3.02502 14.6666 2.91669 14.125 2.91669 13.4916V6.50829C2.91669 4.15829 4.15835 2.91663 6.50835 2.91663H13.3334V2.52496C13.3334 2.19163 13.3917 1.90829 13.525 1.66663H6.50835C3.47502 1.66663 1.66669 3.47496 1.66669 6.50829V13.4916C1.66669 14.4 1.82502 15.1916 2.13335 15.8583C2.85002 17.4416 4.38335 18.3333 6.50835 18.3333H13.4917C16.525 18.3333 18.3334 16.525 18.3334 13.4916V6.47496C18.0917 6.60829 17.8084 6.66663 17.475 6.66663Z" fill="#0F191A"/>
</svg>
